<?xml version="1.0" standalone="yes"?>
<svg xmlns="http://www.w3.org/2000/svg" width="304" height="680">
<path style="fill:#fdfdfd; stroke:none;" d="M0 0L0 680L122 680L150 680C154.497 680 159.15 680.951 162 677C166.164 680.678 170.686 680 176 680L200 680L304 680L304 0L0 0z"/>
<path style="fill:#151313; stroke:none;" d="M50 21C50.0117 25.2288 49.7702 30.0409 52.7029 33.4714C57.0992 38.614 65.4121 39.9329 65.848 48C66.4399 58.9546 52.9071 65.4643 51 76C58.55 74.2533 65.6549 70.9216 73 68.4846C76.9107 67.187 80.8315 65.3481 85 66.7068C98.7415 71.1856 107.061 93.4474 124 89.2878C129.819 87.8588 134.624 83.5931 138.996 79.7137C150.323 69.6624 159.653 56.2703 168.421 44C171.132 40.207 181.306 28.8003 174.682 24.5725C171.408 22.4829 166.691 23.0014 163 23C154.629 22.9968 146.326 24.0818 138 23.9962C126.043 23.8731 114.022 20.5658 102 20.0394C92.9207 19.6418 84.0276 21.5653 75 21.9606C66.5994 22.3285 58.377 21.001 50 21M198 40C196.018 46.7043 198.295 53.7567 194.437 60C187.313 71.527 172.697 77.7836 167 90C173.006 90 181.323 91.4899 187 89.3966C196.457 85.9097 201.455 73.8722 211 70.0093C217.644 67.3204 225.381 70.7156 232 72C229.806 67.3877 222.598 63.1186 222.306 58C222.11 54.5531 225.845 51.3703 227.869 49C232.242 43.8773 236.776 38.783 238 32C230.453 34.3882 223.757 39.3686 217 43.3958C214.344 44.9785 210.32 48.2488 207.015 47.4738C203.524 46.6553 200.784 42.1289 198 40z"/>
<path style="fill:#fdfdfd; stroke:none;" d="M97 52C101.478 57.8544 108.448 63.6189 115 67C111.828 60.1984 104.361 53.7452 97 52z"/>
<path style="fill:#151313; stroke:none;" d="M50 157C58.4689 155.906 66.7188 152.953 75 150.873C78.5757 149.975 83.014 147.883 86.7145 148.847C101.687 152.748 108.995 172.162 126 170.945C132.707 170.465 137.509 165.517 141.996 160.999C152.417 150.508 162.11 138.424 170.136 126C173.137 121.355 180.795 111.919 176.393 106.279C171.897 100.519 157.47 102.756 151 103.039C126.924 104.094 101.983 99.2754 78 102.424C71.6908 103.253 65.3524 102.957 59 103.001C56.7909 103.016 53.5832 102.639 52.0278 104.603C50.902 106.025 50.9734 108.295 51.0486 110.001C51.5029 120.3 66.7761 120.429 66.2392 130C65.6392 140.695 51.7146 146.205 50 157M237 114C231.542 117.6 225.812 121.218 220 124.214C217.515 125.495 214.841 126.904 212 125.957C206.319 124.063 202.702 118.209 197 116C196.999 123.965 197.547 134.988 193.387 142C187.3 152.258 175.021 158.232 170 169C175.498 169 185.093 171.172 190 168.933C199.161 164.753 203.574 151.371 214 149.319C218.535 148.426 223.599 151.08 228 152C225.853 148.751 220.673 144.203 221.172 140C222.269 130.762 239.347 124.17 237 114z"/>
<path style="fill:#fdfdfd; stroke:none;" d="M104 137C107.53 141.612 112.275 145.64 118 147C114.516 142.27 109.784 138.371 104 137z"/>
<path style="fill:#151313; stroke:none;" d="M51 182C51 188.07 50.4087 194.179 55.1335 198.787C58.6084 202.176 66.4707 203.546 67.1265 209.043C68.5583 221.044 52.7613 227.422 50 238C57.5898 237.653 65.739 234.891 73 232.66C77.4665 231.288 83.3494 229.31 88 230.714C102.381 235.053 112.166 254.6 129 251.67C135.634 250.515 140.433 245.544 145 240.999C155.099 230.949 163.591 219.847 171.485 208C174.35 203.699 182.913 192.425 175.851 188.318C167.067 183.209 155.325 187.8 146 186.715C114.504 183.049 82.7117 182 51 182M199 206C199 211.499 199.865 217.891 197.427 223C191.853 234.682 177.389 240.512 170 251C175.983 252.234 182.953 254.434 189 252.272C198.365 248.924 203.703 238.164 213 234.738C217.65 233.025 223.189 234.901 228 235C225.862 232.268 221.006 228.807 221.167 224.999C221.298 221.914 224.712 219.168 226.576 217C231.632 211.12 237.741 205.607 240 198C232.059 199.515 224.845 205.094 218 209.2C215.308 210.815 211.377 214.229 208.04 213.897C204.099 213.505 202.125 208.004 199 206z"/>
<path style="fill:#fdfdfd; stroke:none;" d="M106 219C109.536 224.844 117.943 229.983 124 233C120.822 226.728 112.601 221.189 106 219z"/>
<path style="fill:#151313; stroke:none;" d="M216.004 244.843C213.064 245.972 206.9 250.389 210.619 253.912C214.334 257.432 222.539 257.45 226.981 255.736C231.906 253.836 232.019 249.741 227.941 246.653C224.618 244.137 219.919 243.34 216.004 244.843M248 276C248.985 273.665 249.702 271.551 249.907 268.998C250.126 266.272 250.773 260.951 248.258 259.043C244.31 256.05 234.344 263.553 234.921 267.921C235.573 272.855 244.058 275.063 248 276M72 271C72.099 275.648 72.6491 280.23 76.2245 283.61C80.5869 287.733 87.8517 288.969 88.7284 296C90.0881 306.904 74.5723 313.823 72 324C80.6333 322.885 88.6688 320.221 97 317.86C101.133 316.688 105.694 314.946 110 316.223C123.881 320.339 134.934 340.472 151 337.768C154.909 337.11 158.11 334.246 160.996 331.711C167.617 325.894 173.499 318.646 179.282 312C181.673 309.251 185.938 302.226 190.015 302.206C193.274 302.19 196.74 306.307 199 308.285C205.867 314.294 212.749 321.5 221 325.622C223.843 327.042 228.419 328.914 231.57 327.393C234.747 325.859 234.527 320.802 236.564 318.209C240.42 313.301 248.066 310.305 248.378 303C248.554 298.879 244.616 295.657 241.996 293C236.701 287.63 231.333 282.331 226 277C223.065 274.066 220.007 270.081 216 268.603C211.12 266.804 204.983 268.356 200 268.83C192.133 269.579 183.903 270 176 270C155.672 270.001 135.303 267.517 115 268.015C100.633 268.367 86.3894 271 72 271z"/>
<path style="fill:#fdfdfd; stroke:none;" d="M113 291C116.835 299.054 128.826 308.539 137 312C132.362 303.901 121.265 295.219 113 291z"/>
<path style="fill:#151313; stroke:none;" d="M188 349L188 351C196.245 354.833 204.227 353.349 213 352.13C223.275 350.703 232.674 349.695 243 351C238.086 341.033 223.583 341.201 214 339.87C210.062 339.322 205.894 338.394 202 339.703C196.851 341.434 192.361 345.867 188 349M48 349C49.1209 354.431 50.1171 359.781 54.1088 363.907C58.1015 368.033 66.3948 371.358 66.5579 378C66.7087 384.145 59.9283 387.7 56.0432 391.289C51.7611 395.245 50.1344 399.285 50 405C58.1449 403.947 66.137 400.902 74 398.562C78.0158 397.366 81.7301 395.472 86 396.642C100.587 400.638 112.145 420.154 129 416.721C134.895 415.521 139.902 410.045 144 405.996C154.268 395.851 163.701 384.715 170.688 372C173.336 367.182 180.818 356.4 173.852 352.175C167.977 348.613 159.366 350.224 153 350.83C147.411 351.362 141.611 351.063 136 350.996C128.244 350.904 120.75 348.379 113 348.039C91.3192 347.09 69.6008 348.821 48 349M199 365C197.545 372.835 199.089 381.744 195.232 389C189.102 400.533 175.556 407.082 170 419C175.351 419 183.11 420.417 188 417.972C197.097 413.424 202.301 401.55 212 398.049C217.767 395.967 225.12 399.52 231 400C228.981 396.104 223.955 392.355 223.277 388C222.755 384.652 225.796 381.447 227.654 379C231.702 373.671 235.956 368.457 238 362C231.851 363.186 226.433 367.136 221 370.139C218.384 371.585 215.139 373.737 212 373.273C207.056 372.543 203.45 367.072 199 365z"/>
<path style="fill:#fdfdfd; stroke:none;" d="M102 383C105.078 388.238 111.232 392.288 117 394C113.206 389.339 107.726 384.931 102 383z"/>
<path style="fill:#151313; stroke:none;" d="M51 432C51 436.717 50.1128 442.798 53.5139 446.61C57.8941 451.518 66.0892 452.022 66.6929 460.001C67.5615 471.48 52.9454 477.26 51 488C59.1368 486.321 66.9942 483.499 75 481.293C79.1628 480.147 83.7262 478.566 88 479.984C97.9947 483.299 105.918 492.578 115 497.768C119.285 500.216 124.977 502.725 130 501.336C136.127 499.643 141.652 494.384 145.985 489.996C155.988 479.868 164.387 467.948 172.05 456C175.1 451.245 184.821 439.898 176.852 435.179C173.563 433.231 168.657 434 165 434L138 434C127.1 433.999 116.834 430.514 106 430.039C98.7262 429.721 92.1359 431.637 85 431.961C78.2349 432.268 71.7039 431.103 65 431.019C60.3063 430.959 55.7019 431.961 51 432M197 446C197 453.623 198.805 463.935 195.583 471C190.37 482.428 177.042 489.106 173 501C178.589 501.24 185.709 503.618 191 500.972C199.318 496.813 203.041 485.794 212 482.6C218.236 480.376 225.915 483.608 232 485C229.892 480.568 224.32 476.913 223.522 472C222.958 468.523 226.248 465.439 228.25 463C232.793 457.466 237.933 451.976 240 445C233.432 446.503 227.961 450.912 222 453.915C219.585 455.132 216.819 456.844 214 456.353C207.459 455.215 203.466 447.797 197 446z"/>
<path style="fill:#fdfdfd; stroke:none;" d="M103 466C105.896 470.929 111.795 474.799 117 477C114.102 471.99 108.451 467.838 103 466z"/>
<path style="fill:#151313; stroke:none;" d="M54 516C54.003 520.546 53.5511 525.997 56.564 529.787C60.0536 534.177 66.7957 535.208 66.706 542C66.5536 553.544 53.1435 559.371 51 570C63.4978 569.455 77.5378 560.152 90 563.569C103.231 567.196 112.998 586.9 128 584.657C134.754 583.646 140.309 578.562 145 573.985C155.235 564.002 163.907 552.327 171.139 540C173.812 535.443 182.772 523.555 175.848 519.303C166.386 513.493 151.417 518.417 141 517.961C131.982 517.566 123.038 515.435 114 515.039C94.0481 514.166 73.9906 516 54 516M200 536C197.051 543.029 200.847 551.054 196.713 558C190.587 568.292 178.071 574.126 173 585C177.897 585.947 182.897 590.993 188 589.239C194.844 586.887 200.976 577.297 205.576 572C214.229 562.034 224.999 554.23 233.384 544C237.829 538.577 241.628 533.162 242 526C233.078 526.988 225.005 535.093 218 540.269C215.297 542.266 210.838 547.066 207.105 545.744C203.532 544.478 201.759 539.011 200 536z"/>
<path style="fill:#fdfdfd; stroke:none;" d="M106 549C108.72 553.702 113.772 557.576 119 559C115.716 554.718 111.144 550.783 106 549z"/>
<path style="fill:#151313; stroke:none;" d="M47 604C50.6018 611.702 59.6501 617.756 66 623.282C80.8715 636.221 96.2505 648.663 112 660.525C117.007 664.297 121.968 668.133 127 671.873C129.001 673.36 131.4 675.677 134 675.954C138.871 676.475 147.568 667.301 150.7 663.91C155.876 658.305 159.583 651.376 163.692 645C168.765 637.127 174.423 629.624 179.859 622C183.024 617.561 189.376 610.08 188.497 604.147C188.001 600.803 183.692 600.446 181 600.171C172.536 599.305 163.504 599.803 155 600.015C147.888 600.192 141.16 603.323 134 602.907C125.294 602.4 116.7 599.699 108 599.089C95.2563 598.196 82.5688 600.135 70 601.262C66.7479 601.554 64.1819 599.38 61 599.248C56.2337 599.049 51.282 602.243 47 604M190 642C204.852 638.925 218.373 629.06 231 621.047C236.586 617.502 243.621 613.84 247 608C236.487 607.17 225.544 605.808 215 606.015C211.13 606.092 205.455 606.252 202.279 608.742C199.269 611.1 198.75 615.575 197.656 619C195.204 626.672 191.815 634.157 190 642M162 677C161.014 678.479 161 678.203 161 680L164 680C163.316 678.42 163.195 678.223 162 677z"/>
</svg>
