<?xml version="1.0" standalone="yes"?>
<svg xmlns="http://www.w3.org/2000/svg" width="1681" height="1807">
<path style="fill:#ffffff; stroke:none;" d="M0 0L0 1807L1681 1807L1681 0L0 0z"/>
<path style="fill:#151515; stroke:none;" d="M927 466C925.159 459.486 920.228 461.949 915 462.366C911.392 462.655 907.633 462.01 904 462C901.892 468.824 896.65 466.536 891 467.134C886.967 467.56 879.336 469.752 876.333 472.563C873.908 474.832 874.796 478.135 873.791 481C872.944 483.412 871.405 485.344 871.318 488C871.011 497.347 876.633 497.974 883.83 498.741C885.917 498.963 887.802 499.988 889.95 499.647C892.777 499.199 895.095 497.432 898 497L899 502C902.529 501.3 905.493 498.905 909 498.393C916.536 497.292 927.666 501.006 934 504.808C937.159 506.704 942.906 509.561 942.423 514C942.241 515.671 941.154 517.015 940.356 518.424C939.204 520.46 938.455 522.875 936.687 524.488C932.098 528.673 925.409 527.202 920.299 529.603C918.176 530.599 917.252 533.07 915.701 534.704C913.498 537.024 910.824 538.593 908 540C907.28 537.605 905.613 532.102 902.074 532.881C899.71 533.401 897.993 536.652 895.946 537.915C891.723 540.522 886.641 540.696 882.259 542.712C879.555 543.956 877.987 546.664 874.982 547.448C871.001 548.485 866.135 546.865 862 547.039C855.059 547.333 848.767 550.121 842 550.972C835.315 551.813 830.506 549.877 824.015 553.557C815.463 558.405 812.339 574.336 826 572.776C833.019 571.975 840.161 567.173 847 566.856C849.826 566.724 852.337 568.595 855 569.277C858.953 570.29 864.932 570.819 869 570.596C873.822 570.333 878.065 568.051 883 568.63C887.531 569.162 890.091 572.144 894.168 573.242C896.281 573.812 898.854 573.162 901 573C901.742 575.871 903.349 584.29 905.6 585.953C907.8 587.578 910.224 585.684 912.286 584.88C915.098 583.782 918.982 583.368 922 583.429C928.065 583.552 933.827 588.384 940.08 588.597C942.267 588.672 943.998 587.201 946.089 586.83C949.796 586.174 954.219 586.632 958 586.611C962.842 586.585 974.71 581.468 978.289 586.329C980.036 588.702 978.139 591.195 976.937 593.286C974.854 596.907 972.445 600.744 972.12 605C971.705 610.415 973.476 616.646 972.112 621.961C971.385 624.792 968.742 626.559 967.417 629.089C963.337 636.885 959.853 645.578 954.456 652.536C951.134 656.819 946.242 659.331 942.991 663.299C941.104 665.601 940.107 668.587 938.329 671C934.205 676.595 929.283 681.47 924.4 686.388C922.779 688.021 920.993 690.232 918.75 691.014C916.434 691.821 914.39 690.13 912.08 690.431C907.12 691.078 900.369 695.282 899 700C894.359 700 889.581 699.02 885 699.218C875.39 699.635 864.42 701.261 855.02 697.146C848.816 694.43 852.744 688.615 848.681 684.724C842.936 679.22 828.431 681.062 821 681C822.3 678.237 823.553 676.836 826 675C825.861 673.791 825.489 672.232 825.573 670.999C825.984 664.976 831.924 667.062 835.83 664.977C838.422 663.594 839.987 660.994 843.015 660.357C845.885 659.753 848.887 661.358 851.625 659.951C854.917 658.261 861.639 654.085 863.347 650.812C865.049 647.552 864.512 643.208 867.433 640.589C871.055 637.341 876.896 638.78 880.852 635.991C888.769 630.409 888.04 615.344 884 608C876.367 609.211 869.83 614.327 862 615.671C857.008 616.529 852.854 614.323 848 614C846.532 622.995 834.699 619.165 828 621.039C821.673 622.81 816.1 625.355 810 627.416C808.178 628.031 806.05 627.758 804.313 628.603C802.021 629.717 801.771 632.602 799.687 633.977C796.343 636.183 790.806 636.532 787 638.066C780.878 640.532 776.875 644.68 770 645C770.688 650.48 771.304 655.979 764.995 658.397C763.124 659.115 761.036 658.863 759.17 659.598C756.92 660.484 755.371 662.659 752.961 663.192C750.322 663.776 747.806 661.954 745.17 662.703C742.83 663.367 741.338 665.581 738.961 666.232C736.777 666.831 734.459 665.922 732.38 667.052C730.172 668.253 728.961 670.928 727.287 672.714C720.602 679.847 716.805 688.569 710.56 696C702.946 705.061 692.521 715.085 682.385 721.296C679.491 723.069 675.937 723.131 673.108 724.938C669.839 727.026 669.413 731.031 666.582 733.397C664.453 735.175 661.596 734.969 659 735C659.089 736.721 659.134 738.354 659.638 740.021C663.27 752.032 676.652 744.728 685 743C686.845 736.787 691.759 737.644 697 735.737C699.94 734.667 702.357 732.697 705 731.079C706.679 730.052 710.231 727.323 712.268 728.842C713.978 730.116 712.12 735.165 712 737C717.283 736.138 716.299 732.918 719.588 729.728C722.343 727.055 725.858 727.504 728 724C730.195 724.852 732.592 726.319 735.002 726.312C737.78 726.303 740.183 724.494 742.999 724.518C746.179 724.545 748.363 726.636 751.286 727.365C753.872 728.01 756.427 727.014 759 728.013C765.801 730.653 771.439 736.543 778.17 739.262C782.728 741.104 788.194 740.6 792.83 742.58C795.107 743.553 796.766 745.491 799.039 746.491C801.782 747.697 804.856 747.769 807.561 749.129C811.083 750.899 813.923 753.714 818.004 754.293C821.206 754.748 823.851 752.713 827 752.872C832.31 753.141 837.563 755.412 843 755.66C846.201 755.806 848.879 753.926 852 753.968C855.145 754.009 857.756 756.016 861 755.556C864.395 755.076 867.729 753.201 871 752.181C875.645 750.733 880.525 750.283 884.576 747.34C889.405 743.832 892.716 737.923 898.004 735.175C903.099 732.527 912.313 734.721 916.031 730.566C917.97 728.398 918.703 725.381 920.498 723.089C923.059 719.822 927.041 717.775 928.973 713.996C932.007 708.062 931.528 701.604 936.61 696.303C939.114 693.691 943.051 693.494 945.416 690.722C947.004 688.861 947.691 686.373 949.209 684.424C951.877 681 955.649 678.154 958.066 674.625C959.424 672.641 959.493 670.213 960.513 668.093C961.659 665.714 963.821 664.491 965.406 662.486C966.882 660.619 967.175 658.188 968.599 656.289C976.042 646.356 986.915 638.892 991.165 626.83C994.095 618.515 991.916 609.576 993 601C1004.56 600.895 1010.45 586.726 1004.5 577.005C1003.4 575.193 1001.88 573.094 999.829 572.282C997.319 571.288 994.827 572.792 992.653 570.628C990.063 568.051 988.334 560.35 992.318 558.198C995.168 556.657 1000.79 557.998 1004 558L1004 561C1009.24 560.59 1012.14 561.627 1017.09 562.496C1019.33 562.89 1021.59 562.125 1023.83 562.56C1027.05 563.185 1029.62 565.476 1033 565.736C1036.19 565.982 1038.86 564.12 1041.96 564.003C1044.5 563.907 1046.57 565.588 1049.09 565.688C1057.03 566.001 1066.16 563.986 1073.96 565.338C1080.13 566.406 1084.3 570.839 1091 571L1091 577C1082.48 578.931 1074.96 585.311 1067 588.92C1064.56 590.026 1059.91 591.058 1059.45 594.225C1058.76 599.009 1064.59 602.393 1066.67 606.039C1069.19 610.433 1066.99 614.997 1073 616C1074.13 623.359 1079.01 620.977 1083.58 624.742C1085.77 626.55 1086.37 629.388 1087 632C1093.04 631.523 1097.05 626.007 1103 624.213C1106.27 623.227 1109.65 623.801 1113 624.025C1123.07 624.696 1140.96 626.482 1144 638C1141.73 639.184 1140.02 640.805 1137.91 642.255C1132.53 645.941 1120.07 651.601 1126.18 660.567C1127.84 663.01 1131.32 663.124 1133.7 664.564C1135.93 665.917 1137.55 668.031 1140.17 668.697C1143.49 669.538 1149.71 671.018 1153.04 670.392C1159.38 669.198 1165.34 664.752 1172 664.752C1175.74 664.752 1179.21 666.797 1183 666.866C1185.92 666.92 1188.95 665.329 1191.83 666.107C1194.5 666.831 1196.28 669.416 1199.17 669.603C1201.63 669.763 1203.63 668.257 1205.96 667.812C1208.49 667.331 1210.58 668.698 1213.05 668.817C1215.47 668.933 1217.7 667.449 1220.09 667.819C1226.79 668.855 1231.49 674.176 1238.96 672.771C1248.33 671.007 1242.35 658.388 1249.15 655.313C1251.2 654.383 1253.82 655.007 1256 654.897C1260.58 654.664 1265.45 654.361 1270 653.816C1274.88 653.231 1279.27 651.029 1284 649.969C1286.66 649.373 1289.33 650.152 1292 649.691C1296.07 648.985 1300.11 647.365 1304.17 646.451C1309.35 645.286 1315.38 646.621 1319.61 642.57C1323.27 639.057 1324.69 629.797 1319.43 626.858C1316.5 625.22 1310.28 625.148 1307 625.45C1301.59 625.947 1296.15 623.569 1291 624.431C1285.11 625.414 1280.88 629.607 1275.71 631.902C1273.01 633.101 1269.85 632.073 1267 632.98C1259.87 635.248 1253 639.032 1246 641C1246.17 633.97 1253.48 625.238 1245.86 619.742C1241.95 616.925 1239.04 619.48 1235 619.482C1232.16 619.483 1229.94 618.023 1226.99 618.533C1218.02 620.08 1209.01 626.287 1200 626.505C1189.77 626.752 1177.96 623.641 1169.11 618.606C1166.09 616.889 1165.11 612.851 1161.87 611.622C1158.83 610.471 1156.02 612.573 1153 612.442C1148.53 612.248 1145.74 610.176 1141 611C1141.26 605.085 1147.54 594.63 1144.88 589.305C1142.15 583.841 1131.94 586.284 1130.35 580.853C1129.04 576.421 1136.12 573.442 1136.34 569.015C1136.59 563.848 1129.87 559.549 1129 554C1122.51 552.204 1120.08 549.796 1120 543C1116.52 543.521 1112.5 545.797 1109.01 545.28C1101.3 544.136 1098.97 534.566 1095.15 529.374C1093.42 527.025 1091.36 525.64 1090 523C1084.88 523.589 1085.31 526.539 1081.57 528.976C1078.6 530.916 1071.52 530.821 1068 530.821C1064.05 530.821 1058.62 530.375 1055.09 528.548C1052.35 527.132 1050.37 524.414 1047.07 524.276C1044.66 524.175 1042.33 525.57 1039.96 525.945C1036.58 526.48 1033.32 525.399 1030 525.835C1023.98 526.625 1017.13 529.041 1011 527.993C1004.64 526.906 1001.79 521.221 995 521C997.006 517.269 1000.17 514.163 1001.36 509.999C1002.29 506.748 1001.06 503.334 1002.09 500.17C1003.58 495.558 1005.37 491.979 1006 487C1003.93 485.172 1002.3 482.393 999.871 481.026C996.677 479.227 990.969 480.502 989.748 475.931C988.188 470.093 997.359 468.239 1000.79 466.363C1003.21 465.042 1004.74 462.671 1007.1 461.26C1010.5 459.236 1014.52 458.581 1017.96 456.701C1024.43 453.159 1032.37 443.83 1028.85 436.059C1024.6 426.662 1010.76 440.03 1005 442.396C994.873 446.557 985.744 451.937 975 455.141C972.397 455.917 969.78 454.993 967.286 455.723C963.836 456.732 961.637 460.138 958 461.066C955.68 461.657 953.305 461.31 951 462.085C948.08 463.067 945.251 465.402 942.039 465.307C939.307 465.226 937.581 462.703 934.925 462.461C932.05 462.198 929.425 464.796 927 466M1055 581C1055.68 582.58 1055.8 582.777 1057 584L1057 581L1055 581z"/>
<path style="fill:#ffffff; stroke:none;" d="M1198 649C1200.09 648.594 1200.02 648.783 1201 647C1199.42 647.684 1199.22 647.805 1198 649z"/>
<path style="fill:#151515; stroke:none;" d="M889 870C899.931 870 911.043 866.415 921.961 867.7C924.399 867.987 926.632 869.389 929 870C927.401 873.287 924.828 875.213 922.637 878.089C918.777 883.155 915.877 888.937 912.011 894.089C909.911 896.888 907.373 899.794 905.934 903C904.951 905.189 904.93 907.684 903.397 909.624C899.664 914.353 894.197 914.554 889.286 916.93C887.084 917.995 885.392 919.789 882.985 920.483C876.588 922.328 869.688 916.845 863.375 919.6C860.014 921.066 854.861 926.089 852.93 929.184C850.937 932.378 848.972 937.969 844.044 937.118C839.102 936.265 837.826 928.837 836.482 925C833.709 917.083 828.305 905.515 819 905C816.915 898.244 809.536 895.818 809 888C801.27 889.131 800.594 888.547 794.704 883.544C793.262 882.319 791.06 881.523 790.236 879.701C789.049 877.076 791.524 873.988 789.353 871.603C787.609 869.687 784.295 870.025 782 869.316C775.164 867.205 772.084 864.125 772 857C768.397 857.284 764.518 857.566 761 858.41C758.791 858.941 756.435 860.566 754.093 860.123C751.687 859.669 750.392 857.268 748.486 855.979C746.404 854.571 743.401 853.524 741 852.814C734.154 850.789 727.606 854.884 721 855.582C717.602 855.94 714.355 854.625 711.044 856.013C703.738 859.077 706.521 872.005 712.275 875.542C715.368 877.444 718.659 876.375 722 876.209C727.367 875.942 732.569 876.429 738 876C739.989 881.631 743.626 877.463 747.856 878.732C750.266 879.456 750.768 881.919 752.12 883.706C754.703 887.119 760.674 888.657 760.288 893.941C760.003 897.833 753.711 899.098 751 901.004C746.474 904.186 742.146 904.007 737.286 906.035C733.433 907.642 730.045 911.176 726 912.116C721.261 913.217 716.053 910.928 711.286 912.513C705.425 914.462 700.223 918.282 693.964 919.567C690.849 920.207 687.888 918.054 684.911 919.113C678.693 921.327 673.682 926.245 666.83 927.361C661.089 928.296 655.413 925.784 649.961 926.383C647.298 926.675 644.88 928.21 642.17 928.166C636.069 928.067 630.242 926.913 624 928.302C620.831 929.008 618.246 931.792 615 932.035C611.741 932.279 609.299 929.392 606 929.476C601.035 929.602 595.898 932.681 591 933.626C586.69 934.458 582.233 934.282 578 935.633C572.623 937.35 567.443 940.541 561.911 941.73C557.026 942.779 548.957 942.117 546.042 947.225C542.988 952.578 550.492 959.413 551 965C556.261 964.891 562.992 964.536 567.83 962.298C570.417 961.101 572.172 958.575 575.015 957.885C578.272 957.094 581.68 958.421 585 957.491C588.475 956.517 591.308 953.956 595 953.608C597.737 953.35 600.269 954.748 603 954.401C609.696 953.551 616.333 950.519 623 949.583C639.095 947.325 655.697 944.622 672 943.39C676.369 943.059 680.583 943.537 685 942.935C688.011 942.525 690.937 941.266 694 941.394C698.126 941.566 701.828 943.98 706 943.432C715.359 942.202 724.673 941.624 733.961 940.687C736.507 940.43 738.549 938.645 741.089 938.458C743.781 938.26 746.324 939.617 749 939.722C751.756 939.831 754.277 938.596 757 938.534C759.726 938.472 762.294 939.679 765 939.892C769.195 940.222 774.503 935.766 777.981 937.171C786.489 940.607 779.275 948.319 781.747 953.721C783.267 957.044 788.098 957.244 790.656 959.569C793.529 962.18 794.717 966.448 796 970C806.203 969.534 814.602 964.007 825 964C822.457 969.528 815.591 975.585 809.985 978.063C807.215 979.288 804.087 979.017 801.286 980.209C786.75 986.397 773.178 992.259 758 996.881C750.249 999.241 743.195 996.458 737.399 1004.17C734.244 1008.37 736.339 1013.78 740.478 1016.57C746.731 1020.78 756.737 1019.62 759 1012C761.184 1013.37 763.393 1015.16 766.002 1015.6C770.963 1016.43 773.879 1014.24 776 1020C781.908 1019.61 786.298 1015.86 792 1014.7C796.185 1013.84 799.932 1016.15 804 1015.49C806.851 1015.03 809.204 1013.1 812 1012.42C823.685 1009.58 836.553 1009.6 848.286 1011.46C852.152 1012.07 861.463 1007.96 864.168 1011.6C866.698 1015.01 860.321 1018.9 857.911 1019.92C853.612 1021.75 849.45 1024.03 845 1025.48C838.245 1027.68 832.367 1028.02 827.015 1033.33C820.607 1039.68 820.573 1047.74 830 1050C827.719 1055.09 820.493 1060.46 814.999 1061.7C812.003 1062.37 808.942 1061.74 806 1062.84C802.84 1064.03 800.263 1066.37 797 1067.35C793.415 1068.43 789.602 1067.62 786 1068.64C778.225 1070.83 771.415 1073.99 764 1076.85C757.709 1079.29 750.76 1080.24 744.424 1082.78C736.779 1085.85 728.542 1086.8 721 1089.76C713.094 1092.87 705.841 1098.61 698 1101.4C695.759 1102.2 693.305 1101.9 691 1102.39C684.973 1103.67 679.065 1105.75 673.043 1106.97C669.211 1107.75 667.776 1103.19 663.957 1104.03C658.654 1105.21 654.408 1109.5 649.83 1112.1C646.094 1114.22 641.785 1114.16 638 1115.99C633.815 1118.02 630.08 1122.26 625.714 1123.73C620.569 1125.46 614.202 1121.29 609 1122.64C605.742 1123.48 602.773 1125.81 599.576 1126.98C592.459 1129.6 585.02 1131.79 578 1134.58C575.491 1135.58 573.597 1137.97 571 1138.68C567.986 1139.5 565.094 1137.05 562 1137.27C554.57 1137.8 547.922 1142.65 540.911 1144.14C537.359 1144.89 534.464 1141.87 531.12 1142.45C526.615 1143.23 524.896 1150.48 520.907 1152.7C514.845 1156.07 507.453 1157.46 501.001 1159.86C497.772 1161.06 495.143 1163.58 491.83 1164.53C489.591 1165.17 487.208 1164.93 485 1165.74C479.616 1167.71 475.921 1171.12 470 1172L469 1180C461.298 1181.22 459.349 1187.53 452.907 1190.39C447.749 1192.67 441.553 1192.79 436.169 1194.31C433.147 1195.16 431.05 1197.71 427.996 1198.57C423.561 1199.82 418.049 1199.03 414.603 1202.8C407.095 1211.03 423.619 1221.09 430.039 1222.52C437.505 1224.18 441.331 1219.82 448 1219.04C453.753 1218.37 460.148 1220.95 465.961 1220.39C468.463 1220.15 470.635 1218.72 473.09 1218.26C478.634 1217.23 484.42 1217.38 490 1216.57C493.038 1216.13 496.947 1214.42 499.985 1214.98C503.698 1215.66 505.265 1220 509.039 1220.57C512.949 1221.17 515.969 1217.84 520 1219.1C524.454 1220.5 531.09 1223.88 534.7 1226.9C536.767 1228.62 537.858 1231.26 540.213 1232.68C544.052 1235 548.749 1233.38 552.197 1236.8C556.267 1240.85 554.447 1248.36 559.279 1251.56C568.516 1257.66 578.251 1254.63 588 1254C585.984 1258.17 581.117 1260.96 579.644 1265.28C579.171 1266.67 579.322 1268.24 580.184 1269.44C581.436 1271.19 583.909 1271.63 585.679 1272.67C588.968 1274.59 591.912 1278.31 596.001 1278.47C598.992 1278.59 601.14 1276.15 604 1275.83C606.16 1275.59 608.969 1276.77 610.248 1278.57C612.057 1281.11 608.41 1282.99 607.688 1285.21C606.719 1288.2 607.494 1294.91 608.318 1297.95C610.217 1304.94 617.151 1301.11 621.961 1301.74C625.854 1302.24 628.904 1303.95 633 1304C629.84 1310.12 633.241 1310.43 637.291 1314.27C643.549 1320.21 654.659 1322.13 659.471 1329.29C661.077 1331.68 663.429 1335.91 662.868 1338.9C662.092 1343.03 649.949 1349.88 645.826 1350.15C642.091 1350.4 638.835 1347.8 635 1348.79C629.183 1350.3 625.327 1354.44 619 1355C619.156 1352.94 620.172 1349.44 618.883 1347.61C617.517 1345.67 614.854 1346.55 612.999 1347C608.794 1348.04 603.334 1349.74 599 1349.49C594.368 1349.21 590.808 1345.91 586 1346.19C580.766 1346.5 575.194 1349.98 571 1346C565.713 1346.8 563.409 1349.69 558.911 1351.99C556.771 1353.08 554.3 1352.95 552.089 1353.84C548.05 1355.46 544.016 1357.71 540 1359.5C535.453 1361.53 531.627 1364.9 527 1366.72C522.432 1368.51 517.816 1367.56 513.089 1368.13C507.105 1368.85 498.36 1371.22 493.17 1374.3C487.597 1377.6 479.728 1383.67 477.59 1390C476.387 1393.56 477.313 1398.72 481.189 1400.22C484.671 1401.56 489.401 1399.31 493 1399L493 1402C495.966 1402 499.155 1402.27 502 1401.27C504.402 1400.43 506.391 1398.49 508.91 1397.99C511.296 1397.51 513.604 1398.89 516.039 1398.62C521.864 1397.97 526.894 1395.58 532.982 1395.72C536.385 1395.8 537.391 1398.27 540.259 1399.39C543.287 1400.56 549.763 1400.16 553 1399.74C555.879 1399.36 558.178 1397.4 561 1396.96C565.787 1396.21 569.064 1397.63 574 1395.78C577.78 1394.35 582.772 1390.1 586.891 1390.53C590.291 1390.89 590.406 1394.46 591.983 1396.73C593.638 1399.11 597.429 1401.39 600.17 1402.29C602.746 1403.13 605.366 1402.39 608 1402.46C615.835 1402.65 621.5 1401.64 629.089 1400.26C632.035 1399.72 635.967 1399.24 638.91 1399.85C640.56 1400.2 642.138 1401.46 643.884 1401.21C646.59 1400.82 648.852 1397.93 651.004 1396.46C654.107 1394.34 657.831 1393.45 660.911 1391.32C670.504 1384.68 678.785 1375.92 688.039 1368.86C691.397 1366.31 698.593 1363.84 700.218 1359.79C703.164 1352.43 697.891 1341.61 697.845 1334C697.816 1329.23 700.862 1324.83 699.343 1320.04C697.41 1313.95 689.83 1312.15 687.444 1306C684.266 1297.81 692.737 1281.8 681.943 1277.42C679.759 1276.54 677.312 1276.3 675 1276C673.42 1264.82 667.049 1259.45 657 1255C656.014 1256.48 656 1256.2 656 1258L653 1258C651.618 1254.88 649.378 1252.19 648.147 1249C646.661 1245.14 646.306 1240.94 644.875 1237C643.874 1234.24 643.793 1230.65 640.891 1229.08C637.869 1227.45 630.632 1230 627 1230C628.112 1227.64 630.05 1225.47 630.687 1222.91C634.68 1206.88 611.499 1207.66 607 1195C609.764 1193.74 612.153 1191.64 615 1190.59C619.802 1188.83 627.738 1188.14 630.972 1183.49C634.855 1177.91 625.839 1169.03 632.153 1165.01C638.863 1160.75 648.112 1160.89 654.941 1156.03C657.961 1153.88 658.525 1150.89 660.584 1148.05C662.911 1144.85 667.605 1141.65 671.17 1139.92C675.71 1137.71 681.207 1138.02 685.946 1136.44C688.875 1135.47 690.366 1132.76 693.125 1131.59C694.807 1130.88 696.827 1131.09 698.347 1129.97C701.301 1127.8 701.601 1122.87 704.147 1120.09C707.835 1116.07 712.607 1114.37 716.911 1111.31C719.744 1109.29 721.788 1106.8 725.015 1105.31C729.089 1103.43 732.772 1103.61 737 1102.7C740.214 1102.01 742.898 1099.94 746 1098.92C748.85 1097.98 751.897 1098.4 754.714 1097.49C763.101 1094.78 771.363 1090.3 780 1088.21C783.348 1087.4 786.575 1089.23 789.871 1088.39C792.666 1087.67 794.428 1085.01 797.054 1083.87C806.572 1079.76 816.271 1076.78 826 1073.49C829.373 1072.35 832.35 1070.11 836 1069.81C838.926 1069.58 841.186 1071.32 844 1071.57C846.757 1071.82 849.244 1070.15 851.996 1070.41C855.242 1070.71 857.239 1073.41 860.17 1074.44C864.664 1076.02 871.203 1075.62 876 1076C876.814 1071.19 877.171 1064.34 879.318 1060C882.396 1053.79 892.535 1048.62 899 1047L899 1044C902.264 1043.97 905.681 1043.19 908.911 1043.43C911.253 1043.6 913.368 1045.08 915.754 1044.39C922.344 1042.46 931.141 1033 927.772 1026.06C925.161 1020.68 917.653 1023.94 915.836 1018.85C914.807 1015.97 916.635 1012.9 916.711 1010C916.794 1006.88 915.655 1002.98 914.725 1000C913.584 996.347 904.642 992.412 907.086 988.468C908.849 985.624 916.909 985.608 920 984.351C927.24 981.406 932.709 974.33 941 973.336C943.961 972.98 946.184 974.9 949 975.182C953.453 975.629 956.244 972.367 958 978C973.209 973.258 987.52 963.52 1003 959.609C1011.54 957.45 1020.54 960.729 1029 959.521C1033.13 958.93 1036.76 956.588 1041 956.177C1045.13 955.777 1048.91 957.107 1052.96 957.508C1054.91 957.7 1057.14 956.869 1059 957.443C1068.78 960.455 1068.16 974.497 1071.26 982.089C1072.95 986.233 1074.25 991.715 1079.93 990.427C1081.79 990.004 1083.49 988.953 1085.17 988.076C1097.79 981.453 1089.44 968.725 1087.77 958C1086.82 951.899 1089.67 945.515 1085.49 940.059C1081.81 935.268 1077.72 937.609 1073.04 935.593C1068.22 933.517 1065.25 929.573 1059.83 928.17C1055.49 927.045 1050.15 925.005 1045.83 924.468C1037.49 923.433 1028.38 926.011 1020 925.806C1017.25 925.739 1014.73 924.471 1012 924.383C1009.29 924.295 1006.7 925.348 1004 925.414C997.726 925.568 991.26 924.767 985 925.414C980.173 925.913 975.842 928.572 971 929.203C967.342 929.679 963.595 928.656 960.001 929.562C954.755 930.884 952.402 935.65 947.826 937.914C937.392 943.078 924.444 943.968 913 944C914.608 938.67 920.423 937.566 922 932C927.4 931.748 932.021 929.673 934.826 924.714C936.078 922.5 935.733 919.467 937.603 917.603C939.43 915.782 942.279 916.264 944.405 915.016C947.534 913.18 949.547 910.455 953 909C953.653 905.704 955.45 903.167 956.421 900C957.183 897.51 956.75 894.631 959.238 893.028C962.023 891.233 966.802 893.123 968.954 890.258C970.527 888.163 968.845 885.309 968.95 883C969.072 880.303 970.976 877.925 970.308 875.17C969.693 872.634 967.173 870.951 967.886 868.089C969.241 862.646 975.209 860.732 974.578 854C974.452 852.654 974.069 851.239 973.516 850.005C969.885 841.895 962.885 846.331 957.434 841.411C954.795 839.03 955.029 835.238 955 832C947.977 833.416 945.238 840.055 938.985 842.502C933.846 844.513 927.631 841.274 922.043 843.589C919.557 844.619 918.386 846.772 916.406 848.417C913.877 850.517 908.814 852.838 905.714 853.987C900.961 855.748 895.149 850.865 890.638 854.028C885.322 857.754 887.858 865.004 889 870M607 1342C609.853 1341.01 610.373 1339.94 611 1337C608.036 1337.97 607.497 1338.93 607 1342z"/>
</svg>
